<svg version="1.1" id="Layer_1" xmlns="http://www.w3.org/2000/svg" xmlns:xlink="http://www.w3.org/1999/xlink" x="0px" y="0px"
	 width="100%" viewBox="0 0 88 88" enable-background="new 0 0 88 88" xml:space="preserve">
<path fill="#FDFEFF" opacity="1.000000" stroke="none" 
	d="
M0.999999,69.000000 
	C1.000000,46.400536 1.000000,23.801073 1.000000,1.000000 
	C27.353886,1.000000 53.708282,1.000000 80.393967,1.321447 
	C78.488747,6.801525 76.252258,11.960156 73.677017,17.025454 
	C51.305271,0.046672 24.114378,8.904502 13.386106,28.056946 
	C6.340802,40.634441 6.226978,53.538399 12.060212,66.888855 
	C8.204216,67.819359 4.602107,68.409676 0.999999,69.000000 
z"/>
<path fill="#FBFCFF" opacity="1.000000" stroke="none" 
	d="
M89.000000,75.000000 
	C89.000000,79.644608 89.000000,84.289207 89.000000,89.000000 
	C62.979137,89.000000 36.958225,89.000000 10.667292,88.723991 
	C14.618887,85.542603 18.840506,82.637230 23.400564,79.845871 
	C33.031151,86.290321 43.093784,89.265099 54.424870,87.454758 
	C64.247421,85.885437 71.990402,80.758629 79.274582,73.958801 
	C82.800957,74.321785 85.900475,74.660889 89.000000,75.000000 
z"/>
<path fill="#FBFCFF" opacity="1.000000" stroke="none" 
	d="
M83.000000,1.000000 
	C84.988419,1.000000 86.976830,1.000000 89.000000,1.000000 
	C89.000000,24.020884 89.000000,47.041782 88.597336,70.524483 
	C86.074432,70.646263 83.954193,70.306244 81.908249,69.608612 
	C88.063454,58.608109 90.387703,47.206867 85.771301,35.714748 
	C83.115784,29.104069 78.166443,23.414818 74.607513,17.151840 
	C77.643585,11.661927 80.321793,6.330964 83.000000,1.000000 
z"/>
<path fill="#FEFEFF" opacity="1.000000" stroke="none" 
	d="
M4.999999,89.000000 
	C3.693917,89.000000 2.387834,89.000000 1.000000,89.000000 
	C1.000000,83.313309 1.000000,77.626366 1.449872,71.469009 
	C5.927441,70.666893 9.955139,70.335182 14.168200,70.278572 
	C16.585520,72.998421 18.817476,75.443153 21.001289,78.244080 
	C19.449650,79.987251 18.118187,81.654945 16.407278,82.703506 
	C12.708005,84.970650 8.814217,86.920410 4.999999,89.000000 
z"/>
<path fill="#E3EEFC" opacity="1.000000" stroke="none" 
	d="
M81.833961,69.966225 
	C83.954193,70.306244 86.074432,70.646263 88.597336,70.993141 
	C89.000000,72.066673 89.000000,73.133339 89.000000,74.600006 
	C85.900475,74.660889 82.800957,74.321785 79.361115,73.652237 
	C79.958527,72.203262 80.896240,71.084747 81.833961,69.966225 
z"/>
<path fill="#E3EFFC" opacity="1.000000" stroke="none" 
	d="
M5.416665,89.000000 
	C8.814217,86.920410 12.708005,84.970650 16.407278,82.703506 
	C18.118187,81.654945 19.449650,79.987251 21.274664,78.327042 
	C22.084827,78.613167 22.573475,79.172508 23.062122,79.731857 
	C18.840506,82.637230 14.618887,85.542603 10.198633,88.723991 
	C8.611111,89.000000 7.222222,89.000000 5.416665,89.000000 
z"/>
<path fill="#E3EFFC" opacity="1.000000" stroke="none" 
	d="
M82.666672,1.000000 
	C80.321793,6.330964 77.643585,11.661927 74.528290,17.130384 
	C74.091209,17.267878 74.015762,17.118788 74.015762,17.118788 
	C76.252258,11.960156 78.488747,6.801525 80.862625,1.321447 
	C81.444443,1.000000 81.888893,1.000000 82.666672,1.000000 
z"/>
<path fill="#E2EEFC" opacity="1.000000" stroke="none" 
	d="
M13.982837,70.003464 
	C9.955139,70.335182 5.927441,70.666893 1.449872,70.999306 
	C1.000000,70.555557 1.000000,70.111107 0.999999,69.333328 
	C4.602107,68.409676 8.204216,67.819359 12.308109,67.111740 
	C13.200876,67.997452 13.591856,69.000458 13.982837,70.003464 
z"/>
<path fill="#2E85EA" opacity="1.000000" stroke="none" 
	d="
M14.168200,70.278572 
	C13.591856,69.000458 13.200876,67.997452 12.561998,66.771553 
	C6.226978,53.538399 6.340802,40.634441 13.386106,28.056946 
	C24.114378,8.904502 51.305271,0.046672 73.677017,17.025454 
	C74.015762,17.118788 74.091209,17.267878 74.170433,17.289333 
	C78.166443,23.414818 83.115784,29.104069 85.771301,35.714748 
	C90.387703,47.206867 88.063454,58.608109 81.908249,69.608612 
	C80.896240,71.084747 79.958527,72.203262 78.934265,73.628357 
	C71.990402,80.758629 64.247421,85.885437 54.424870,87.454758 
	C43.093784,89.265099 33.031151,86.290321 23.400562,79.845863 
	C22.573475,79.172508 22.084827,78.613167 21.322807,77.970856 
	C18.817476,75.443153 16.585520,72.998421 14.168200,70.278572 
M44.386787,55.747303 
	C44.194595,59.399723 43.886421,63.052326 43.892025,66.704445 
	C43.893421,67.613945 44.742767,68.755051 45.536785,69.318169 
	C45.863937,69.550194 47.426083,68.744812 47.827618,68.060089 
	C52.276623,60.473240 56.670574,52.852119 60.937225,45.161385 
	C62.439716,42.453102 61.185619,41.105011 58.250004,41.101254 
	C55.635616,41.097900 53.021221,41.100544 49.831032,41.100544 
	C50.143188,37.280506 50.555264,34.026878 50.603180,30.767893 
	C50.622257,29.470423 49.835648,28.161108 49.415829,26.857187 
	C48.234486,27.524492 46.559193,27.895061 45.951340,28.906887 
	C41.764385,35.876469 37.786316,42.972008 33.771835,50.044502 
	C32.232117,52.757088 33.190094,54.042747 36.198990,54.209446 
	C38.812466,54.354237 41.417755,54.646809 44.386787,55.747303 
z"/>
<path fill="#EDF4FD" opacity="1.000000" stroke="none" 
	d="
M44.206726,55.310688 
	C41.417755,54.646809 38.812466,54.354237 36.198990,54.209446 
	C33.190094,54.042747 32.232117,52.757088 33.771835,50.044502 
	C37.786316,42.972008 41.764385,35.876469 45.951340,28.906887 
	C46.559193,27.895061 48.234486,27.524492 49.415833,26.857187 
	C49.835648,28.161108 50.622257,29.470423 50.603180,30.767893 
	C50.555264,34.026878 50.143188,37.280506 49.831032,41.100544 
	C53.021221,41.100544 55.635616,41.097900 58.250004,41.101254 
	C61.185619,41.105011 62.439716,42.453102 60.937225,45.161385 
	C56.670574,52.852119 52.276623,60.473240 47.827618,68.060089 
	C47.426083,68.744812 45.863937,69.550194 45.536785,69.318169 
	C44.742767,68.755051 43.893421,67.613945 43.892025,66.704445 
	C43.886421,63.052326 44.194595,59.399723 44.206726,55.310688 
M56.172249,46.488953 
	C55.647591,45.893002 55.154308,44.818977 54.592960,44.782135 
	C51.861065,44.602859 49.110962,44.701096 46.429668,44.701096 
	C46.128586,41.811401 45.903778,39.653759 45.561386,36.367603 
	C42.454586,41.773731 39.956680,46.120331 37.106487,51.079945 
	C41.198818,51.079945 44.466549,51.079945 48.088566,51.079945 
	C47.795326,54.234642 47.537754,57.005646 47.280182,59.776646 
	C47.710087,59.863163 48.139992,59.949684 48.569901,60.036205 
	C51.001549,55.758530 53.433197,51.480854 56.172249,46.488953 
z"/>
<path fill="#3086EA" opacity="1.000000" stroke="none" 
	d="
M56.018547,46.846066 
	C53.433197,51.480854 51.001549,55.758530 48.569901,60.036205 
	C48.139992,59.949684 47.710087,59.863163 47.280182,59.776646 
	C47.537754,57.005646 47.795326,54.234642 48.088566,51.079945 
	C44.466549,51.079945 41.198818,51.079945 37.106487,51.079945 
	C39.956680,46.120331 42.454586,41.773731 45.561386,36.367603 
	C45.903778,39.653759 46.128586,41.811401 46.429668,44.701096 
	C49.110962,44.701096 51.861065,44.602859 54.592960,44.782135 
	C55.154308,44.818977 55.647591,45.893002 56.018547,46.846066 
z"/>
</svg>