<svg version="1.1" id="Layer_1" xmlns="http://www.w3.org/2000/svg" xmlns:xlink="http://www.w3.org/1999/xlink" x="0px" y="0px"
	 width="100%" viewBox="0 0 88 88" enable-background="new 0 0 88 88" xml:space="preserve">
<path fill="#FCFDFF" opacity="1.000000" stroke="none" 
	d="
M77.000000,89.000000 
	C51.723331,89.000000 26.446663,89.000000 1.084998,89.000000 
	C1.084998,59.789165 1.084998,30.577999 1.084998,1.000000 
	C11.351339,1.000000 21.707012,1.000000 32.689491,1.310616 
	C35.880661,3.099847 38.445026,4.578462 40.658882,6.202982 
	C24.469759,8.454521 7.087039,21.727055 6.105159,43.959362 
	C4.781303,73.934891 34.224895,94.214569 61.920563,82.709396 
	C63.634434,81.997429 65.594391,81.877861 67.770370,81.693558 
	C70.401360,83.271385 72.701828,84.638329 75.001144,86.002518 
	C75.000000,85.999756 74.994194,85.998085 75.119545,86.274269 
	C75.829933,87.366966 76.414963,88.183487 77.000000,89.000000 
z"/>
<path fill="#FDFEFF" opacity="1.000000" stroke="none" 
	d="
M37.000000,1.000000 
	C54.228657,1.000000 71.457314,1.000000 89.000000,1.000000 
	C89.000000,7.684115 89.000000,14.373145 88.627739,21.495020 
	C83.499931,20.286722 78.744385,18.645580 73.686974,16.857409 
	C65.589287,9.751562 56.379971,6.326355 45.940834,5.431631 
	C42.904625,3.731580 39.952312,2.365790 37.000000,1.000000 
z"/>
<path fill="#FBFCFF" opacity="1.000000" stroke="none" 
	d="
M81.000000,89.000000 
	C80.555557,89.000000 80.111107,89.000000 79.298584,88.642448 
	C77.618408,87.522629 76.306297,86.760361 74.994194,85.998085 
	C74.994194,85.998085 75.000000,85.999756 74.966080,85.646416 
	C72.441498,83.997894 69.950844,82.702705 67.337845,81.012466 
	C67.645859,80.115898 68.014885,79.540810 68.515419,79.123451 
	C88.464287,62.489746 91.443558,43.002563 77.822723,20.939106 
	C81.830971,21.976938 85.415489,22.988468 89.000000,24.000000 
	C89.000000,43.020893 89.000000,62.041790 88.686478,81.666672 
	C85.915306,84.513771 83.457649,86.756889 81.000000,89.000000 
z"/>
<path fill="#E4EFFC" opacity="1.000000" stroke="none" 
	d="
M81.494736,89.000000 
	C83.457649,86.756889 85.915306,84.513771 88.686478,82.135330 
	C89.000000,84.254570 89.000000,86.509140 89.000000,89.000000 
	C86.665672,89.000000 84.327568,89.000000 81.494736,89.000000 
z"/>
<path fill="#E2EEFC" opacity="1.000000" stroke="none" 
	d="
M89.000000,23.666668 
	C85.415489,22.988468 81.830971,21.976938 77.608063,20.772621 
	C75.976059,19.388037 74.982445,18.196238 73.988838,17.004440 
	C78.744385,18.645580 83.499931,20.286722 88.627739,21.963932 
	C89.000000,22.444445 89.000000,22.888889 89.000000,23.666668 
z"/>
<path fill="#E7F1FD" opacity="1.000000" stroke="none" 
	d="
M36.600006,1.000000 
	C39.952312,2.365790 42.904625,3.731580 45.529655,5.519510 
	C43.804714,5.980125 42.407051,6.018600 41.009392,6.057076 
	C38.445026,4.578462 35.880661,3.099847 33.158150,1.310616 
	C34.066669,1.000000 35.133339,1.000000 36.600006,1.000000 
z"/>
<path fill="#E4EFFC" opacity="1.000000" stroke="none" 
	d="
M75.119545,86.274269 
	C76.306297,86.760361 77.618408,87.522629 78.965256,88.642448 
	C78.555557,89.000000 78.111107,89.000000 77.333328,89.000000 
	C76.414963,88.183487 75.829933,87.366966 75.119545,86.274269 
z"/>
<path fill="#2F85EA" opacity="1.000000" stroke="none" 
	d="
M40.658882,6.202982 
	C42.407051,6.018600 43.804714,5.980125 45.613548,5.853771 
	C56.379971,6.326355 65.589287,9.751562 73.686974,16.857410 
	C74.982445,18.196238 75.976059,19.388037 77.184326,20.746319 
	C91.443558,43.002563 88.464287,62.489746 68.515419,79.123451 
	C68.014885,79.540810 67.645859,80.115898 67.358810,81.037491 
	C67.502129,81.457573 67.439850,81.482666 67.439850,81.482666 
	C65.594391,81.877861 63.634434,81.997429 61.920563,82.709396 
	C34.224895,94.214569 4.781303,73.934891 6.105159,43.959362 
	C7.087039,21.727055 24.469759,8.454521 40.658882,6.202982 
M71.672562,43.907547 
	C74.843689,34.523106 70.806465,27.610220 60.910892,26.676332 
	C54.681763,26.088459 48.321098,26.456606 42.051117,26.872927 
	C36.692551,27.228731 33.118252,31.014305 31.778231,36.167995 
	C31.407940,37.592125 30.198120,39.232239 28.916832,39.910240 
	C23.297407,42.883770 20.560181,48.092640 21.972269,53.901920 
	C23.278849,59.277142 28.019985,62.832443 34.119633,62.895359 
	C39.601498,62.951897 45.085064,62.960228 50.566689,62.893059 
	C56.813282,62.816517 61.123886,59.262611 62.828739,53.264942 
	C63.223251,51.877064 64.230118,50.508888 65.302917,49.502197 
	C67.196136,47.725658 69.356766,46.234093 71.672562,43.907547 
z"/>
<path fill="#E4EFFC" opacity="1.000000" stroke="none" 
	d="
M67.770370,81.693558 
	C67.439850,81.482666 67.502129,81.457573 67.481155,81.432541 
	C69.950844,82.702705 72.441498,83.997894 74.967224,85.649170 
	C72.701828,84.638329 70.401360,83.271385 67.770370,81.693558 
z"/>
<path fill="#ECF3FD" opacity="1.000000" stroke="none" 
	d="
M71.539001,44.265388 
	C69.356766,46.234093 67.196136,47.725658 65.302917,49.502197 
	C64.230118,50.508888 63.223251,51.877064 62.828739,53.264942 
	C61.123886,59.262611 56.813282,62.816517 50.566689,62.893059 
	C45.085064,62.960228 39.601498,62.951897 34.119633,62.895359 
	C28.019985,62.832443 23.278849,59.277142 21.972269,53.901920 
	C20.560181,48.092640 23.297407,42.883770 28.916832,39.910240 
	C30.198120,39.232239 31.407940,37.592125 31.778231,36.167995 
	C33.118252,31.014305 36.692551,27.228731 42.051117,26.872927 
	C48.321098,26.456606 54.681763,26.088459 60.910892,26.676332 
	C70.806465,27.610220 74.843689,34.523106 71.539001,44.265388 
M35.995167,36.065990 
	C35.547253,43.668312 37.822697,46.228630 45.169834,46.288258 
	C50.167221,46.328819 55.166618,46.367725 60.162575,46.273193 
	C65.489426,46.172409 68.491798,43.722435 68.933342,39.340881 
	C69.351868,35.187851 66.589310,31.187065 61.730385,30.776777 
	C55.331184,30.236429 48.807415,30.376415 42.413734,31.003801 
	C40.225128,31.218559 38.267185,33.783978 35.995167,36.065990 
M25.922840,49.040386 
	C25.681902,56.236004 28.067907,58.889992 34.964550,58.957096 
	C40.281239,59.008827 45.603176,59.093552 50.914860,58.920525 
	C55.859810,58.759453 58.258720,55.989929 58.547726,50.611458 
	C49.623405,48.380211 38.375813,54.668617 31.727146,42.245247 
	C29.569710,44.585659 27.872042,46.427307 25.922840,49.040386 
z"/>
<path fill="#2F86EA" opacity="1.000000" stroke="none" 
	d="
M36.099510,35.670708 
	C38.267185,33.783978 40.225128,31.218559 42.413734,31.003801 
	C48.807415,30.376415 55.331184,30.236429 61.730385,30.776777 
	C66.589310,31.187065 69.351868,35.187851 68.933342,39.340881 
	C68.491798,43.722435 65.489426,46.172409 60.162575,46.273193 
	C55.166618,46.367725 50.167221,46.328819 45.169834,46.288258 
	C37.822697,46.228630 35.547253,43.668312 36.099510,35.670708 
z"/>
<path fill="#3187EB" opacity="1.000000" stroke="none" 
	d="
M26.048607,48.654671 
	C27.872042,46.427307 29.569710,44.585659 31.727146,42.245247 
	C38.375813,54.668617 49.623405,48.380211 58.547230,50.613277 
	C58.258720,55.989929 55.859810,58.759453 50.914860,58.920525 
	C45.603176,59.093552 40.281239,59.008827 34.964550,58.957096 
	C28.067907,58.889992 25.681902,56.236004 26.048607,48.654671 
z"/>
</svg>